<?xml version="1.0" encoding="UTF-8" standalone="no"?>
<!-- Uploaded to: SVG Repo, www.svgrepo.com, Transformed by: SVG Repo Mixer Tools -->

<svg
   width="256"
   height="256"
   viewBox="0 0 24 24"
   fill="none"
   stroke="#ffffff"
   data-darkreader-inline-stroke=""
   stroke-width="0.144"
   version="1.1"
   id="svg1"
   xmlns="http://www.w3.org/2000/svg"
   xmlns:svg="http://www.w3.org/2000/svg">
  <defs
     id="defs1" />
  <g
     id="SVGRepo_bgCarrier"
     stroke-width="0">
    <rect
       x="0"
       y="0"
       width="24"
       height="24"
       rx="12"
       fill="#241f31"
       strokewidth="0"
       id="rect1"
       style="fill:#080808;fill-opacity:1" />
  </g>
  <g
     id="SVGRepo_iconCarrier">
    <path
       fill-rule="evenodd"
       clip-rule="evenodd"
       d="m 5.29289,5.29289 c 0.39053,-0.39052 1.02369,-0.39052 1.41422,0 L 12,10.5858 17.2929,5.29289 c 0.3905,-0.39052 1.0237,-0.39052 1.4142,0 0.3905,0.39053 0.3905,1.02369 0,1.41422 L 13.4142,12 l 5.2929,5.2929 c 0.3905,0.3905 0.3905,1.0237 0,1.4142 -0.3905,0.3905 -1.0237,0.3905 -1.4142,0 L 12,13.4142 6.70711,18.7071 c -0.39053,0.3905 -1.02369,0.3905 -1.41422,0 -0.39052,-0.3905 -0.39052,-1.0237 0,-1.4142 L 10.5858,12 5.29289,6.70711 c -0.39052,-0.39053 -0.39052,-1.02369 0,-1.41422 z"
       fill="#c64600"
       data-darkreader-inline-fill=""
       id="path1" />
  </g>
</svg>
