<?xml version="1.0" encoding="UTF-8"?>
<svg xmlns="http://www.w3.org/2000/svg" xmlns:xlink="http://www.w3.org/1999/xlink" width="25px" height="25px" viewBox="0 0 25 25" version="1.1">
<g id="surface1">
<path style=" stroke:none;fill-rule:nonzero;fill:rgb(14.117648%,12.156863%,19.215687%);fill-opacity:1;" d="M 12.5 0 C 19.402344 0 25 5.597656 25 12.5 C 25 19.402344 19.402344 25 12.5 25 C 5.597656 25 0 19.402344 0 12.5 C 0 5.597656 5.597656 0 12.5 0 Z M 12.5 0 "/>
<path style="fill-rule:evenodd;fill:rgb(77.64706%,27.450982%,0%);fill-opacity:1;stroke-width:0.144;stroke-linecap:butt;stroke-linejoin:miter;stroke:rgb(100%,100%,100%);stroke-opacity:1;stroke-miterlimit:4;" d="M 5.29125 5.29125 C 5.685 4.90125 6.315 4.90125 6.70875 5.29125 L 12 10.58625 L 17.29125 5.29125 C 17.685 4.90125 18.315 4.90125 18.70875 5.29125 C 19.09875 5.685 19.09875 6.315 18.70875 6.70875 L 13.41375 12 L 18.70875 17.29125 C 19.09875 17.685 19.09875 18.315 18.70875 18.70875 C 18.315 19.09875 17.685 19.09875 17.29125 18.70875 L 12 13.41375 L 6.70875 18.70875 C 6.315 19.09875 5.685 19.09875 5.29125 18.70875 C 4.90125 18.315 4.90125 17.685 5.29125 17.29125 L 10.58625 12 L 5.29125 6.70875 C 4.90125 6.315 4.90125 5.685 5.29125 5.29125 Z M 5.29125 5.29125 " transform="matrix(1.041667,0,0,1.041667,0,0)"/>
</g>
</svg>
